<?xml version="1.0" encoding="utf-8"?>
<!-- Generator: Adobe Illustrator 16.0.4, SVG Export Plug-In . SVG Version: 6.00 Build 0)  -->
<!DOCTYPE svg PUBLIC "-//W3C//DTD SVG 1.1//EN" "http://www.w3.org/Graphics/SVG/1.1/DTD/svg11.dtd">
<svg version="1.1" id="Layer_1" xmlns="http://www.w3.org/2000/svg" xmlns:xlink="http://www.w3.org/1999/xlink" x="0px" y="0px"
	 width="16px" height="16px" viewBox="504 504 16 16" enable-background="new 504 504 16 16" xml:space="preserve">
<path fill="#3E4243" d="M519.56,519.559c-0.587,0.588-1.538,0.588-2.126,0l-2.65-2.65c-1.091,0.699-2.379,1.115-3.771,1.115
	c-3.873,0-7.012-3.141-7.012-7.012c0-3.873,3.14-7.012,7.012-7.012c3.873,0,7.013,3.139,7.013,7.012c0,1.391-0.417,2.68-1.116,3.771
	l2.651,2.652C520.146,518.022,520.146,518.971,519.56,519.559z M511.012,506.002c-2.766,0-5.009,2.242-5.009,5.008
	c0,2.768,2.243,5.008,5.009,5.008c2.768,0,5.01-2.24,5.01-5.008C516.021,508.245,513.778,506.002,511.012,506.002L511.012,506.002z"
	/>
</svg>
