<?xml version="1.0" standalone="no"?>
<!DOCTYPE svg PUBLIC "-//W3C//DTD SVG 1.1//EN" "http://www.w3.org/Graphics/SVG/1.1/DTD/svg11.dtd" >
<svg xmlns="http://www.w3.org/2000/svg" xmlns:xlink="http://www.w3.org/1999/xlink" version="1.1">
<metadata>
Created by FontForge 20141024 at Tue Jun 23 08:09:18 2015
 By Jimmy Warting
</metadata>
<defs>
<font id="yubei" horiz-adv-x="878" >
  <font-face 
    font-family="yubei"
    font-weight="400"
    font-stretch="normal"
    units-per-em="1024"
    panose-1="0 0 0 0 0 0 0 0 0 0"
    ascent="960"
    descent="-64"
    bbox="-2 -73 2597 961"
    underline-thickness="0"
    underline-position="0"
    unicode-range="U+0001-E62B"
  />
<missing-glyph horiz-adv-x="0" 
 />
    <glyph glyph-name=".notdef" horiz-adv-x="0" 
 />
    <glyph glyph-name="NULL" horiz-adv-x="0" 
d="M0 0v0v0z" />
    <glyph glyph-name="NULL" horiz-adv-x="0" 
d="M0 0v0v0z" />
    <glyph glyph-name="uni0001" horiz-adv-x="0" 
d="M0 0v0v0z" />
    <glyph glyph-name="space" unicode=" " horiz-adv-x="512" 
d="M0 0v0v0z" />
    <glyph glyph-name="uniE600" unicode="&#xe600;" horiz-adv-x="951" 
d="M926 718q-38 -56 -93 -96q2 -8 1 -24q1 -74 -22 -148q-21 -74 -66 -142q-43 -68 -105 -120q-61 -53 -148 -84q-85 -31 -184 -31q-154 0 -284 83q21 -2 45 -2q129 0 229 79q-59 1 -108 36q-46 36 -65 92q20 -3 35 -3q26 0 49 6q-63 13 -106 64q-41 50 -42 117l1 2
q38 -21 83 -23q-39 25 -60 66q-23 40 -22 88q-1 50 25 93q68 -85 168 -136q98 -52 213 -57q-6 21 -5 42q-1 77 54 131q53 54 131 54q79 0 134 -59q62 12 118 45q-23 -66 -82 -102q53 6 107 29h-1z" />
    <glyph glyph-name="uniE601" unicode="&#xe601;" horiz-adv-x="439" 
d="M292 633h147l-17 -162h-130v-471h-195v471h-97v162h97v98q0 104 49 157q49 54 162 54h130v-163h-81q-23 0 -36 -3q-14 -4 -20 -14q-6 -9 -7 -19q-2 -10 -2 -29v-81z" />
    <glyph glyph-name="uniE602" unicode="&#xe602;" 
d="M293 219q0 30 -22 52q-21 21 -52 22q-30 -1 -51 -22q-22 -22 -22 -52q0 -31 22 -51q21 -23 51 -22q31 -1 52 22q22 20 22 51zM493 165q-7 133 -101 226q-94 95 -226 101q-8 2 -14 -5q-6 -5 -6 -13v-72q0 -9 5 -13q5 -6 12 -6q88 -7 151 -69q63 -64 69 -151q1 -8 6 -12
q5 -6 13 -5l73 -1q7 1 13 6q6 7 5 14zM713 165q-3 87 -32 170q-30 81 -80 149q-51 65 -117 117q-67 49 -149 80q-82 28 -170 32q-8 -1 -13 -6q-6 -6 -6 -13v-74q0 -6 5 -12q6 -5 13 -6q117 -3 216 -64q99 -59 159 -159q60 -98 64 -216q0 -6 6 -13q5 -4 12 -5l73 1q8 -1 13 6
q7 4 6 13zM878 712v-547q0 -69 -49 -117q-48 -49 -116 -48l-548 -1q-68 1 -117 48q-48 50 -48 117v549q0 67 48 116q49 48 117 49l548 -1q68 1 116 -49q49 -47 49 -116z" />
    <glyph glyph-name="uniE603" unicode="&#xe603;" 
d="M439 595l115 -175l-230 1zM647 292l54 1l-262 393l-262 -393l53 -1l60 92l298 -1zM878 439q0 -121 -59 -220q-59 -102 -160 -160q-101 -60 -220 -59q-120 -1 -220 59q-101 58 -160 160q-59 99 -59 220q0 118 59 220q59 100 160 160q100 58 220 59q119 -1 220 -59
q101 -60 160 -160q59 -102 59 -220z" />
    <glyph glyph-name="uniE604" unicode="&#xe604;" 
d="M256 695q0 30 -21 52q-22 21 -52 21t-52 -21q-21 -22 -21 -52t21 -52q22 -21 52 -21t52 21q21 22 21 52zM866 366q0 -31 -21 -52l-281 -281q-22 -21 -52 -21t-51 21l-409 409q-22 21 -37 58t-15 67v238q0 29 22 51q21 22 51 22h238q30 0 67 -15q36 -16 58 -37l409 -408
q21 -23 21 -52z" />
    <glyph glyph-name="uniE605" unicode="&#xe605;" horiz-adv-x="1024" 
d="M1024 545v-454q0 -37 -27 -64t-64 -27h-842q-37 0 -64 27t-27 64v454q25 -28 58 -50q207 -140 284 -197q32 -24 53 -37q20 -14 54 -28q33 -14 62 -14h2q29 0 62 14q34 14 54 28q21 13 53 37q97 71 285 197q32 23 57 50zM1024 713q0 -45 -28 -86t-70 -70
q-215 -150 -267 -186q-6 -4 -24 -18q-19 -13 -31 -21q-13 -9 -30 -19t-33 -15q-15 -5 -28 -5h-2q-13 0 -28 5q-16 5 -33 15t-30 19q-12 8 -31 21q-18 14 -24 18q-52 36 -150 104q-97 68 -117 82q-35 24 -67 66q-31 42 -31 78q0 44 24 74q23 30 67 30h842q37 0 64 -27t27 -65
z" />
    <glyph glyph-name="uniE606" unicode="&#xe606;" 
d="M199 594v-566l-188 -1v568zM211 770q1 -43 -28 -70q-30 -29 -78 -28l-1 -1q-47 1 -75 28q-29 29 -29 70q0 43 29 70q30 28 77 27q48 1 76 -27q29 -27 29 -70v1zM878 353v-326l-188 1v302q0 61 -23 94q-24 35 -73 34q-36 1 -60 -19q-24 -19 -36 -49q-7 -16 -7 -47v-315
l-188 -1q2 229 2 370q0 143 -1 169l-1 29l188 -1v-82l-1 -1q12 20 24 32q12 15 32 30q20 17 50 25q29 10 65 9q98 1 157 -65q60 -64 60 -190v1z" />
    <glyph glyph-name="uniE607" unicode="&#xe607;" horiz-adv-x="1024" 
d="M512 731q-117 0 -218 -39q-101 -40 -161 -107q-60 -68 -60 -146q0 -64 41 -122t115 -100l50 -29l-16 -55q-13 -52 -40 -98q87 36 158 98l24 21l33 -3q39 -5 74 -5q117 0 218 40t161 107q60 68 60 146t-60 146q-60 67 -161 107q-101 39 -218 39zM1024 439q0 -100 -69 -184
q-68 -84 -186 -133t-257 -49q-40 0 -83 5q-113 -100 -263 -139q-28 -8 -65 -12h-3q-8 0 -15 6t-9 16v0q-2 2 -1 7q2 5 2 6q-1 1 2 5l4 5v0l4 5l4 5q4 5 18 20t20 22q6 6 17 22q12 16 19 29q7 14 15 34q9 21 15 44q-90 50 -141 125q-52 75 -52 161q0 99 69 184q68 84 186 133
t257 49t257 -49t186 -133q69 -85 69 -184z" />
    <glyph glyph-name="uniE608" unicode="&#xe608;" horiz-adv-x="1024" 
d="M402 731q-87 0 -163 -29q-76 -30 -121 -81t-45 -109q0 -47 30 -90q31 -44 86 -76l55 -32l-20 -48q19 12 35 23l26 17l30 -5q44 -8 87 -8q88 0 164 29q76 30 121 81q44 51 44 109t-44 109q-45 51 -121 81q-76 29 -164 29zM402 805q109 0 202 -40q93 -39 147 -106
q54 -68 54 -147t-54 -147q-54 -67 -147 -106q-93 -40 -202 -40q-49 0 -100 10q-71 -51 -159 -74q-21 -5 -49 -9h-2q-6 0 -12 5q-5 4 -6 12q-1 2 -1 4v3l2 4l1 3v0l2 3l2 3q1 -1 3 2q2 4 2 3q3 3 13 14q11 11 15 17q5 6 13 17q8 10 14 22q6 11 12 25q-71 41 -111 101
q-41 60 -41 128q0 79 54 147q53 67 146 106q93 40 202 40zM872 137q6 -14 12 -26q6 -11 14 -22q8 -10 13 -16q4 -6 15 -17q10 -11 13 -14q0 -1 2 -3l3 -3t2 -3t2 -3l1 -3v0l2 -3q1 -3 0 -4q-1 0 -1 -3q-1 -8 -7 -13t-13 -4q-28 4 -49 9q-88 23 -159 73q-51 -9 -100 -9
q-155 0 -270 76q33 -3 50 -3q92 0 177 26q84 26 151 74q71 52 109 121q39 68 39 145q0 44 -13 87q73 -41 116 -102t43 -131q0 -69 -41 -129q-40 -59 -111 -100z" />
    <glyph glyph-name="uniE609" unicode="&#xe609;" horiz-adv-x="951" 
d="M501 114q0 12 -3 23t-5 20q-3 10 -10 20q-8 10 -12 18q-5 7 -16 16l-15 15q-6 5 -19 15q-12 9 -17 13q-5 3 -19 13t-18 12q-9 1 -28 1q-31 0 -61 -4q-29 -4 -61 -14q-32 -11 -56 -27t-40 -42q-15 -27 -15 -62q0 -38 20 -69t53 -48t69 -26t73 -9q33 0 64 8q30 7 57 22
t43 42t16 63zM432 606q0 35 -9 73q-10 39 -27 75q-18 36 -48 59q-31 24 -69 24q-53 0 -82 -40q-29 -39 -29 -94q0 -27 7 -57q6 -29 20 -59t32 -54q18 -23 44 -38q27 -15 56 -15q55 0 80 35q25 34 25 91zM357 878h250l-77 -45h-77q40 -26 62 -72q23 -47 23 -97q0 -42 -13 -75
q-14 -33 -32 -53q-19 -20 -38 -37t-32 -35t-13 -38q0 -15 9 -29q10 -15 25 -28t33 -27q18 -15 37 -32q18 -17 33 -38q15 -20 25 -48q9 -29 9 -61q0 -92 -80 -161q-87 -75 -240 -75q-34 0 -68 6q-35 5 -70 19q-35 13 -62 33t-44 51t-17 69q0 35 21 77q18 37 55 63
q37 27 83 41t88 21q43 6 86 7q-36 48 -36 85q0 7 1 14q1 6 3 11q1 5 4 12q3 8 4 13q-23 -3 -40 -3q-85 0 -146 56t-61 140q0 80 55 143q54 64 133 81q54 12 107 12zM951 731v-73h-146v-146h-74v146h-146v73h146v147h74v-147h146z" />
    <glyph glyph-name="uniE60A" unicode="&#xe60a;" horiz-adv-x="366" 
d="M358 640q0 -7 -5 -13l-225 -225l225 -224q5 -6 5 -13q0 -8 -5 -14l-29 -28q-6 -6 -13 -6q-8 0 -13 6l-267 266q-5 6 -5 13q0 8 5 13l267 267q5 5 13 5q7 0 13 -5l29 -29q5 -6 5 -13z" />
    <glyph glyph-name="uniE60B" unicode="&#xe60b;" horiz-adv-x="366" 
d="M340 402q0 -7 -6 -13l-266 -266q-6 -6 -13 -6q-8 0 -13 6l-29 28q-6 6 -6 14q0 7 6 13l225 224l-225 225q-6 6 -6 13t6 13l29 29q5 5 13 5q7 0 13 -5l266 -267q6 -5 6 -13z" />
    <glyph glyph-name="uniE60C" unicode="&#xe60c;" horiz-adv-x="658" 
d="M614 530q0 -7 -5 -13l-267 -266q-5 -6 -13 -6q-7 0 -13 6l-266 266q-6 6 -6 13q0 8 6 13l28 29q6 6 13 6q8 0 14 -6l224 -225l225 225q5 6 13 6q7 0 13 -6l29 -29q5 -5 5 -13z" />
    <glyph glyph-name="uniE60D" unicode="&#xe60d;" horiz-adv-x="1097" 
d="M731 91q0 -7 -5 -12q-5 -6 -13 -6h-548q-5 0 -8 1t-5 4t-3 5q-2 2 -2 6q-1 5 -1 7v343h-109q-15 0 -26 11t-11 25t9 24l182 219q11 13 28 13q18 0 28 -13l183 -219q9 -10 9 -24t-11 -25t-26 -11h-109v-220h329q9 0 14 -6l91 -110q4 -6 4 -12zM1097 329q0 -14 -8 -23
l-183 -220q-12 -13 -28 -13q-17 0 -28 13l-183 220q-9 9 -9 23q0 15 11 26t26 11h110v219h-330q-9 0 -14 7l-91 110q-4 5 -4 11q0 8 5 13q6 5 13 5h549q4 0 7 -1t5 -4t4 -4q1 -2 1 -7q1 -5 1 -6v-343h110q14 0 25 -11t11 -26z" />
    <glyph glyph-name="uniE60E" unicode="&#xe60e;" horiz-adv-x="658" 
d="M614 274q0 -7 -5 -13l-29 -28q-6 -6 -13 -6q-8 0 -13 6l-225 224l-224 -224q-6 -6 -14 -6q-7 0 -13 6l-28 28q-6 6 -6 13q0 8 6 13l266 267q6 5 13 5q8 0 13 -5l267 -267q5 -5 5 -13z" />
    <glyph glyph-name="uniE60F" unicode="&#xe60f;" horiz-adv-x="951" 
d="M832 256q0 23 -16 39l-119 119q-16 16 -39 16q-24 0 -41 -19q2 -1 11 -10l12 -12q3 -4 9 -11q5 -8 7 -15t2 -16q0 -22 -16 -38t-39 -16q-8 0 -15 2t-15 7q-7 5 -11 9l-12 12l-11 11q-18 -18 -18 -42q0 -23 16 -39l117 -118q16 -16 39 -16t39 15l84 84q16 16 16 38z
M430 659q0 23 -16 39l-117 118q-16 16 -39 16t-39 -15l-84 -84q-16 -16 -16 -38q0 -23 16 -39l119 -119q15 -15 39 -15t41 17l-11 11l-12 12q-4 4 -9 11q-5 8 -7 15t-2 15q0 23 16 39t38 16q9 0 16 -2t15 -7q7 -6 11 -9l12 -12t10 -11q19 18 19 42zM942 256q0 -69 -49 -116
l-84 -83q-47 -48 -116 -48t-116 49l-118 118q-48 47 -48 116q0 70 51 119l-51 51q-49 -51 -118 -51t-117 48l-119 119q-48 48 -48 117q0 68 49 116l84 83q47 48 116 48t116 -49l118 -118q47 -48 47 -116q0 -70 -50 -120l50 -50q50 50 119 50t117 -48l119 -118
q48 -48 48 -117z" />
    <glyph glyph-name="uniE610" unicode="&#xe610;" horiz-adv-x="798" 
d="M398 576l102 -151h-202zM766 603q8 -18 14 -37t9.5 -38.5t5.5 -39.5t2 -41t-2 -41t-5.5 -39.5t-9.5 -38.5t-14 -37t-17 -35t-19.5 -33t-23 -30.5t-25.5 -28.5q-14 -13 -28.5 -25.5t-30.5 -23t-33 -19.5t-35 -17t-37 -14t-38.5 -10t-39.5 -5.5t-41 -1.5t-41 1.5t-39.5 5.5
t-38 10t-36.5 14q-19 8 -35.5 17t-33 19.5t-30.5 23t-28 25.5q-13 14 -25 28.5t-23 30.5t-20 33t-17 35t-14 37t-9.5 38.5t-5.5 39.5t-2 41t2 41t5.5 39.5t9.5 38.5t14 37t17 35t20 33t23 30.5t26 28.5q13 13 27.5 25.5t30.5 23t33 19.5t36 17q18 8 36.5 14t38 10t39.5 6
t41 2t41 -1.5t39.5 -5.5t38.5 -10t37 -14t35 -17t33 -19.5t30.5 -23t28.5 -25.5q13 -14 25.5 -28.5t23 -30.5t19.5 -33t17 -35zM694 257l-296 444l-298 -444h82l69 98h296l65 -98h82z" />
    <glyph glyph-name="uniE611" unicode="&#xe611;" horiz-adv-x="2597" 
d="M524 649v-61l3 -1q42 26 83 40t79.5 21.5t71.5 9t59 2.5q69 -1 116.5 -9t79 -20t49 -23.5t26.5 -20.5q15 10 40.5 22t61.5 24t83 19t105 8q118 -1 181.5 -20.5t92.5 -48t34 -57.5t5 -48v-290l-252 -1v260q0 19 -2 39.5t-14.5 36.5t-40 26.5t-77.5 9.5q-25 1 -49.5 -3
t-46 -10t-38 -16t-25.5 -20q-8 -10 -14 -19t-9.5 -21.5t-5.5 -27.5t-2 -37v-217l-252 -1v250q0 28 -2 51t-14 38.5t-38.5 24.5t-76.5 8q-25 1 -49 -2.5t-45.5 -9t-38.5 -14t-27 -17.5q-7 -8 -13.5 -16t-10.5 -20.5t-6.5 -29t-2.5 -43.5v-219l-252 -1v455zM2302 549l-183 -1
v-181q0 -25 1 -40.5t8 -26t22.5 -14.5t43.5 -5q13 1 25.5 1.5t25 2l25 3t24.5 5.5h8l24 -92q-34 -7 -67.5 -10t-62 -5.5t-50.5 -2.5t-33 -1q-31 1 -65 3t-65 8t-57 14t-41 22q-12 10 -19.5 21t-11.5 25t-5 33t-1 44v197l-124 -1v96l124 -1v91l271 69v-159l183 -1v-94z
M167 -62q-38 58 -68.5 119t-52.5 126.5t-34 132t-12 135.5q0 79 14.5 152t38 136.5t54 119.5t62.5 101l101 1q-28 -64 -51.5 -122.5t-40 -120.5t-25.5 -128t-9 -144q0 -88 13.5 -166t33 -141.5t40 -113t35.5 -79.5q0 -2 0.5 -2t1 -1.5t1 -2t0.5 -2.5l-102 1v-1zM2431 958
q37 -56 68 -118t53 -126.5t33.5 -132t11.5 -134.5q0 -81 -14 -153t-38 -136.5t-54.5 -119.5t-61.5 -102l-102 1q28 62 51.5 121.5t40 120.5t26 128t9.5 143q0 90 -14 167t-33 141.5t-40 113t-35 80.5q-1 0 -1.5 1t-1 1.5t-1 2l-0.5 1.5l103 1v-1z" />
    <glyph glyph-name="uniE612" unicode="&#xe612;" horiz-adv-x="1024" 
d="M996 -36q-14 -14 -32 -21t-36.5 -7t-36 7t-31.5 21l-170 170q-26 -17 -54.5 -30t-59 -22.5t-62.5 -14.5t-65 -5q-93 0 -175 35.5t-142.5 96.5t-96 142.5t-35.5 174.5t35.5 175t96 142.5t142.5 96t175 35.5t174.5 -35.5t142.5 -96t96.5 -142.5t35.5 -175q0 -33 -5 -65
t-14.5 -62.5t-22.5 -59t-30 -54.5l170 -170q14 -14 21 -31.5t7 -36t-7 -36.5t-21 -32zM449 832q-67 0 -125 -25.5t-101.5 -69t-69 -101.5t-25.5 -125q0 -66 25.5 -124.5t69 -102t101.5 -68.5t125 -25q66 0 124.5 25t102 68.5t68.5 102t25 124.5q0 67 -25 125t-68.5 101.5
t-102 69t-124.5 25.5z" />
    <glyph glyph-name="uniE613" unicode="&#xe613;" horiz-adv-x="1024" 
d="M869 955h87v-11h10v-108h-10v-43h-11v-22h-11v-33h-11v-21h-11v-11h-11v-22h-10v-11h-11v-11h-11v-10h-11v-22h-11v-11h-11v-11h-21v-11h-22v-21h-22v-11h-11v-33h11v-54h-11v-54h-10v-33h-11v-21h11v-65h-11v-11h-11v-22h-11v-11h-11v-32h11v-22h11v-22h11v-21h32v-11
h22v-11h22v-11h21v-11h11v-10h11v-11h11v-11h11v-11h11v-11h10v-11h11v-10h11v-22h11v-11h11v-22h11v-21h10v-22h-390v11h-11v11h-10v11h-11v10h-22v11h-43v-32h-11v-22h-33v22h-11v-22h-32v11h11v32h-11v-10h-33v-22h-21v-11h-304v11h11v22h11v10h11v11h11v22h10v11h11v11
h11v10h22v11h11v11h10v11h11v11h11v11h11v10h22v11h10v11h11v11h22v11h22v11h21v10h33v11h11v22h11v11h10v22h22v-11h22v-11h21v-11h22v-11h22v-11h21v-11h22v11h33v-11h11v11h43v11h43v11h22v11h11v11h11v11h10v10h11v11h11v22h11v11h11v43h-11v22h-11v11h11v10h-11v11h-11
v33h-11v11h-10v10h-11v11h-22v11h-43v11h-54v-11h-55v-11h-11v11h-65v-11h-21v-11h-11v-10h-11v-11h-22v-11h-10v-22h10v11h11v11h11v-11h-11v-11h-11v-21h-10v-33h-22v22h11v43h-11v54h-11v98h11v22h11v10h-11v11h-11v11h-11v11h-11v11h-21v11h-11v10h-33v11h-21v11h-22v11
h-22v11h-11v11h-10v10h-11v11h-11v22h-11v11h-11v11h-11v21h-10v22h-11v76h11v11h86v-11h22v-11h32v-11h22v-11h22v-10h22v-11h32v-11h11v-11h22v-11h21v-11h22v-10h11v-11h11v11h10v10h11v-21h11v-11h33v32h10v11h11v-11h44v-10h11v21h21v-21h11v32h11v11h11v-11h11v-11h10
v-32h11v-33h11v-11h11v22h11v22h11v21h10v11h11v22h11v11h11v11h11v10h11v22h10v11h22v11h11v11h22v10h21v11h33v11v0zM934 944h-54v-11h-33v-10h-11v-11h-10v-11h-11v-11h-11v-11h-11v-11h-11v-10h-11v-11h-11v-22h-10v-22h-11v-32h-11v-33h-11v-21h-11v-33h11v-11h-11v-11
h11v-10h-11v-22h11v11h54v11h22v10h22v11h21v11h22v11h11v11h11v21h11v11h10v22h11v11h11v43h11v65h11v54h-11v11v0zM143 901h-55v-22h-10v-43h10v-11h11v-11h11v-21h11v-11h11v-22h11v-11h21v-11h11v-11h54v-10h11v10h11v-10h54v-11h44v-11h21v22h-11v21h-10v22h-11v11h-11
v32h-11v11h-11v11h-21v11h-55v11h-11v11h-21v10h-11v11h-22v11h-21v11v0zM901 727h-10v-10h10v10v0zM880 695h-11v-11h11v11v0zM479 652h-11v-11h-33v-11h-11v-11h-10v-22h-11v-43h11v-11h10v-11h55v11h32v11h33v-11h43v-11h43v11h11v11h11v54h-11v11h-11v11h-10v11h-22v11
h-43v-11h-22v-11h-22v11h-11v11h-11v-11h-10v11v0zM446 619h33v-11h10v-11h-10v-10h-33v32v0zM598 619h11v-11h11v-11h10v-10h-10v-11h-22v11h-11v21h11v11v0zM728 478h-11v-22h11v22v0zM706 218h-11v-11h11v11v0zM446 -10h-11v-21h11v21v0zM717 -31h-11v-11h11v11v0z" />
    <glyph glyph-name="uniE614" unicode="&#xe614;" horiz-adv-x="805" 
d="M293 841q0 15 -11 26t-26 11t-26 -11t-11 -26t11 -26q11 -10 26 -10t26 10q11 11 11 26zM805 859v-182q0 -10 -7 -15q-5 -4 -12 -4q-2 0 -4 1l-256 55q-6 1 -10 6t-4 11h-146v-58q63 -13 105 -63q41 -51 41 -116v-457q0 -15 -11 -26t-26 -11h-292q-15 0 -26 11t-11 26
v457q0 60 36 109q36 48 92 65v63h-18q-34 0 -66 -13t-52 -30t-38 -38q-17 -21 -23 -31q-6 -9 -8 -14q-10 -20 -32 -20q-10 0 -17 4q-13 7 -18 21q-5 15 2 28q3 6 8 15q6 9 22 31q16 21 34 40q19 18 49 38t62 30q-14 24 -14 49q0 38 26 65q27 27 65 27t65 -27q26 -27 26 -65
q0 -19 -8 -36h173q0 6 4 11t10 6l256 55q2 1 4 1q7 0 12 -4q7 -5 7 -15z" />
    <glyph glyph-name="uniE615" unicode="&#xe615;" 
d="M878 439q0 -119 -59 -220q-59 -100 -160 -160q-101 -58 -220 -59q-64 1 -125 18q34 54 45 94q5 20 31 121q11 -22 41 -39q31 -15 66 -16q69 1 123 39q54 40 84 108q30 69 30 154q0 66 -34 122q-34 58 -99 93q-64 37 -146 36q-60 1 -112 -16q-52 -16 -88 -44
q-36 -27 -62 -63q-26 -35 -38 -74q-13 -38 -13 -77q0 -58 23 -105q23 -44 67 -63q17 -6 22 11q1 5 4 18q4 15 5 17q3 14 -6 25q-30 36 -30 86q0 87 60 148q60 63 156 62q87 1 135 -46q48 -46 48 -122q0 -96 -39 -165q-39 -67 -100 -68q-35 1 -56 25q-21 25 -13 59
q4 21 15 54q10 34 17 59q7 26 7 43q0 29 -16 47q-15 20 -44 19q-35 1 -60 -33q-24 -31 -24 -81q0 -40 14 -69l-57 -238q-9 -41 -7 -101q-118 51 -190 160q-73 108 -73 242q0 118 59 220q59 100 160 160q100 58 220 59q119 -1 220 -59q101 -60 160 -160q59 -102 59 -220v-1z
" />
    <glyph glyph-name="uniE616" unicode="&#xe616;" 
d="M713 878q68 0 116 -49q49 -48 49 -116v-548q0 -68 -49 -117q-48 -48 -116 -48h-414q48 70 62 120q5 19 30 119q12 -22 42 -38t64 -16q104 0 169 84q65 85 65 214q0 48 -20 93t-55 79q-35 35 -87 56q-52 20 -112 20t-112 -16q-51 -16 -87 -44q-36 -27 -61 -62
q-26 -35 -38 -73q-13 -38 -13 -76q0 -58 23 -103q22 -44 66 -63q8 -3 14 0t8 11q6 25 9 35q3 13 -7 24q-28 35 -28 86q0 85 59 146t155 61q85 0 132 -46q48 -46 48 -120q0 -96 -38 -164q-39 -67 -100 -67q-34 0 -55 25t-13 59q4 19 15 53q11 33 17 58t6 43q0 28 -15 46
q-15 19 -43 19q-35 0 -59 -32q-25 -33 -25 -80q0 -41 14 -69l-56 -237q-14 -57 -4 -145h-104q-68 0 -117 48q-48 49 -48 117v548q0 68 48 116q49 49 117 49h548z" />
    <glyph glyph-name="uniE617" unicode="&#xe617;" 
d="M135 143h132v396h-132v-396zM276 662q-1 29 -21 49q-20 19 -53 19t-54 -19q-21 -20 -21 -49t21 -49q20 -20 53 -20v0q34 0 54 20q21 20 21 49zM610 143h132v227q0 88 -41 133q-42 46 -111 46q-77 0 -119 -67h1v57h-132q2 -37 0 -396h132v222q0 21 4 32q9 20 26 34t42 14
q66 0 66 -90v-212zM878 713v-548q0 -68 -49 -117q-48 -48 -116 -48h-548q-68 0 -117 48q-48 49 -48 117v548q0 68 48 116q49 49 117 49h548q68 0 116 -49q49 -48 49 -116z" />
    <glyph glyph-name="uniE618" unicode="&#xe618;" 
d="M731 602q-32 -14 -69 -19q39 23 53 67q-37 -22 -76 -29q-35 37 -88 37q-49 0 -84 -35q-36 -35 -36 -85q0 -16 3 -27q-73 4 -138 37t-110 89q-16 -29 -16 -61q0 -65 52 -100q-27 1 -57 15v-1q0 -43 28 -77q29 -33 70 -41q-16 -5 -29 -5q-7 0 -22 3q12 -36 43 -60
q30 -23 69 -24q-66 -51 -149 -51q-15 0 -29 2q85 -54 184 -54q64 0 120 20t96 54t69 79q29 44 43 92q14 49 14 97q0 10 -1 15q36 26 60 62zM878 713v-548q0 -68 -49 -117q-48 -48 -116 -48h-548q-68 0 -117 48q-48 49 -48 117v548q0 68 48 116q49 49 117 49h548
q68 0 116 -49q49 -48 49 -116z" />
    <glyph glyph-name="uniE619" unicode="&#xe619;" 
d="M747 426l13 125h-113v63q0 28 9 39t41 11h62v125h-100q-86 0 -124 -41t-38 -122v-75h-75v-125h75v-363h150v363h100zM878 713v-548q0 -68 -49 -117q-48 -48 -116 -48h-548q-68 0 -117 48q-48 49 -48 117v548q0 68 48 116q49 49 117 49h548q68 0 116 -49q49 -48 49 -116z
" />
    <glyph glyph-name="uniE61A" unicode="&#xe61a;" 
d="M512 640v-256q0 -8 -5 -13t-13 -5h-183q-8 0 -13 5t-5 13v37q0 8 5 13t13 5h128v201q0 8 5 13t13 5h37q8 0 13 -5t5 -13zM750 439q0 84 -42 156q-42 71 -113 113q-72 42 -156 42q-85 0 -156 -42q-72 -42 -113 -113q-42 -72 -42 -156q0 -85 42 -156q41 -72 113 -113
q71 -42 156 -42q84 0 156 42q71 41 113 113q42 71 42 156zM878 439q0 -120 -59 -220q-59 -101 -160 -160t-220 -59q-120 0 -220 59q-101 59 -160 160q-59 100 -59 220q0 119 59 220t160 160q100 59 220 59q119 0 220 -59t160 -160t59 -220z" />
    <glyph glyph-name="uniE61B" unicode="&#xe61b;" horiz-adv-x="951" 
d="M658 475q0 106 -75 181t-181 75q-105 0 -181 -75q-75 -75 -75 -181q0 -105 75 -180q76 -76 181 -76q106 0 181 76q75 75 75 180zM951 0q0 -30 -22 -51q-22 -22 -51 -22q-31 0 -52 22l-196 195q-102 -71 -228 -71q-81 0 -156 32t-129 86t-85 128q-32 75 -32 156
q0 82 32 157q31 74 85 128t129 86t156 32q82 0 157 -32q74 -32 128 -86t86 -128q32 -75 32 -157q0 -125 -71 -228l196 -196q21 -21 21 -51z" />
    <glyph glyph-name="uniE61C" unicode="&#xe61c;" horiz-adv-x="585" 
d="M439 585q0 61 -43 104q-43 42 -103 42q-61 0 -104 -42q-43 -43 -43 -104q0 -60 43 -103t104 -43q60 0 103 43t43 103zM585 585q0 -62 -19 -102l-208 -442q-9 -19 -27 -30t-38 -11q-21 0 -39 11t-27 30l-208 442q-19 40 -19 102q0 121 86 207q85 86 207 86q121 0 206 -86
q86 -86 86 -207z" />
    <glyph glyph-name="uniE61D" unicode="&#xe61d;" 
d="M512 165v110q0 7 -5 13q-5 5 -13 6l-110 -1q-8 1 -13 -6q-5 -4 -5 -13v-108q0 -9 5 -14q5 -6 13 -5l110 -1q8 1 13 5q5 7 5 14zM658 550q0 49 -31 93q-32 42 -80 66q-47 22 -97 23q-139 -1 -212 -121q-8 -15 5 -24l75 -58q4 -3 11 -4q9 1 14 7q31 40 50 53q19 14 49 13
q27 1 49 -15q21 -13 21 -33q0 -21 -11 -35q-12 -12 -39 -26q-36 -15 -66 -49q-30 -33 -30 -72v-20q0 -9 5 -13q5 -6 13 -5l110 -1q8 1 13 5q5 6 5 13q0 12 12 29q13 18 31 28q19 11 28 16q10 7 27 20q16 15 25 28q9 14 16 34q7 22 7 47v1zM878 440q0 -121 -59 -220
q-59 -102 -160 -160q-101 -60 -220 -59q-120 -1 -220 59q-101 58 -160 160q-59 99 -59 220q0 118 59 220q59 100 160 160q100 58 220 59q119 -1 220 -59q101 -60 160 -160q59 -102 59 -220z" />
    <glyph glyph-name="uniE61E" unicode="&#xe61e;" 
d="M585 165v91q0 8 -5 13t-13 5h-55v293q0 8 -5 13t-13 5h-183q-8 0 -13 -5t-5 -13v-92q0 -8 5 -13t13 -5h55v-183h-55q-8 0 -13 -5t-5 -13v-91q0 -8 5 -14q5 -5 13 -5h256q8 0 13 5q5 6 5 14zM512 677v91q0 8 -5 13t-13 5h-110q-8 0 -13 -5t-5 -13v-91q0 -8 5 -14
q5 -5 13 -5h110q8 0 13 5q5 6 5 14zM878 439q0 -120 -59 -220q-59 -101 -160 -160t-220 -59q-120 0 -220 59q-101 59 -160 160q-59 100 -59 220q0 119 59 220t160 160q100 59 220 59q119 0 220 -59t160 -160t59 -220z" />
    <glyph glyph-name="uniE61F" unicode="&#xe61f;" horiz-adv-x="805" 
d="M805 242q0 -15 -6 -40t-12 -39q-12 -29 -70 -61q-54 -29 -106 -29q-16 0 -30 2q-15 2 -33 7t-27 9q-9 3 -32 11q-23 9 -28 11q-56 20 -100 47q-73 45 -151 123t-123 151q-28 44 -48 100q-1 5 -10 28q-8 23 -12 32q-3 9 -8 27t-7 33t-2 30q0 53 29 106q32 58 61 70
q14 6 39 12t40 6q8 0 12 -2q10 -3 30 -43q7 -11 18 -31q10 -20 20 -37q9 -16 17 -30q2 -2 10 -14q9 -12 13 -21q4 -8 4 -16q0 -11 -17 -29q-16 -17 -35 -31t-36 -30q-16 -16 -16 -27q0 -5 3 -12q3 -8 5 -12t8 -14t6 -11q44 -78 100 -134t134 -99q1 -1 11 -7t14 -8t11 -5
q8 -3 13 -3q11 0 27 17q16 16 30 35t31 35q17 17 29 17q8 0 16 -4t20 -13l15 -10q14 -8 30 -17q17 -9 37 -20t30 -17q40 -20 44 -31q2 -4 2 -12z" />
    <glyph glyph-name="uniE620" unicode="&#xe620;" horiz-adv-x="951" 
d="M439 402v-219q0 -46 -32 -78t-78 -32h-219q-46 0 -78 32t-32 78v402q0 60 23 114t63 93q39 39 93 63q54 23 114 23h36q15 0 26 -11t11 -26v-73q0 -15 -11 -26t-26 -11h-36q-61 0 -104 -42q-43 -43 -43 -104v-18q0 -23 16 -39t39 -16h128q46 0 78 -32t32 -78zM951 402
v-219q0 -46 -32 -78t-78 -32h-219q-46 0 -78 32t-32 78v402q0 60 23 114t63 93q39 39 93 63q54 23 114 23h36q15 0 26 -11t11 -26v-73q0 -15 -11 -26t-26 -11h-36q-61 0 -104 -42q-43 -43 -43 -104v-18q0 -23 16 -39t39 -16h128q46 0 78 -32t32 -78z" />
    <glyph glyph-name="uniE621" unicode="&#xe621;" horiz-adv-x="951" 
d="M439 768v-402q0 -60 -23 -114t-63 -93q-39 -40 -93 -63t-114 -23h-36q-15 0 -26 11t-11 26v73q0 15 11 26q11 10 26 10h36q61 0 104 43t43 104v18q0 23 -16 39t-39 16h-128q-46 0 -78 32t-32 78v219q0 46 32 78t78 32h219q46 0 78 -32t32 -78zM951 768v-402
q0 -60 -23 -114t-63 -93q-39 -40 -93 -63t-114 -23h-36q-15 0 -26 11t-11 26v73q0 15 11 26q11 10 26 10h36q61 0 104 43t43 104v18q0 23 -16 39t-39 16h-128q-46 0 -78 32t-32 78v219q0 46 32 78t78 32h219q46 0 78 -32t32 -78z" />
    <glyph glyph-name="uniE622" unicode="&#xe622;" horiz-adv-x="951" 
d="M73 0h805v585h-805v-585zM293 695v164q0 8 -6 14q-5 5 -13 5h-36q-8 0 -13 -5q-6 -6 -6 -14v-164q0 -8 6 -13q5 -5 13 -5h36q8 0 13 5q6 5 6 13zM731 695v164q0 8 -5 14q-5 5 -13 5h-36q-8 0 -14 -5q-5 -6 -5 -14v-164q0 -8 5 -13q6 -5 14 -5h36q8 0 13 5t5 13zM951 731
v-731q0 -30 -22 -51q-22 -22 -51 -22h-805q-30 0 -51 22q-22 21 -22 51v731q0 30 22 52q21 22 51 22h73v54q0 38 27 65t65 27h36q38 0 65 -27t27 -65v-54h219v54q0 38 27 65t65 27h36q38 0 65 -27t27 -65v-54h73q29 0 51 -22t22 -52z" />
    <glyph glyph-name="uniE623" unicode="&#xe623;" horiz-adv-x="1024" 
d="M955 627q0 -23 -16 -38l-492 -493q-16 -15 -38 -16q-23 1 -39 16l-285 286q-16 15 -16 39q0 21 16 38l78 77q16 17 39 16q23 1 39 -16l168 -167l374 374q16 17 39 16q23 1 39 -16l78 -77q16 -17 16 -39z" />
    <glyph glyph-name="uniE624" unicode="&#xe624;" horiz-adv-x="805" 
d="M742 195q0 -23 -16 -38l-78 -79q-16 -15 -39 -16q-23 1 -39 16l-168 169l-168 -169q-16 -15 -39 -16q-22 1 -38 16l-78 79q-16 15 -16 38q0 22 16 39l168 167l-168 169q-16 15 -16 39q0 22 16 39l78 77q16 17 38 16q23 1 39 -16l168 -167l168 167q16 17 39 16
q23 1 39 -16l78 -77q16 -17 16 -39q0 -24 -16 -39l-168 -169l168 -167q16 -17 16 -39z" />
    <glyph glyph-name="uniE625" unicode="&#xe625;" horiz-adv-x="951" 
d="M951 581q0 -13 -15 -27l-207 -204l49 -284v-12q0 -13 -6 -20q-6 -9 -17 -8q-11 -1 -23 7l-257 133l-256 -133q-13 -8 -23 -7q-12 -1 -18 8q-6 7 -6 20q0 3 1 12l49 284l-208 204q-14 14 -14 27q0 20 32 26l287 41l128 261q11 23 28 24q18 -1 28 -24l129 -261l287 -41
q32 -6 32 -26z" />
    <glyph glyph-name="uniE626" unicode="&#xe626;" horiz-adv-x="951" 
d="M650 377l175 170l-242 35l-108 219l-108 -219l-241 -35l175 -170l-42 -240l216 113l216 -113zM951 581q0 -12 -15 -27l-207 -203l49 -285v-12q0 -28 -23 -28q-11 0 -23 7l-257 134l-256 -134q-13 -7 -23 -7q-12 0 -18 8t-6 20q0 4 1 12l49 285l-208 203q-14 15 -14 27
q0 21 32 26l287 42l128 260q11 24 28 24q18 0 28 -24l129 -260l287 -42q32 -5 32 -26z" />
    <glyph glyph-name="uniE627" unicode="&#xe627;" 
d="M878 439q0 -119 -59 -220q-59 -100 -160 -160q-101 -58 -220 -59q-120 1 -220 59q-101 60 -160 160q-59 101 -59 220q0 120 59 220q59 102 160 160q100 60 220 59q119 1 220 -59q101 -58 160 -160q59 -100 59 -220z" />
    <glyph glyph-name="uniE628" unicode="&#xe628;" 
d="M819 662q15 -25 26 -51.5t18 -54t11 -56t4 -58.5t-4 -59t-11 -56.5t-18 -53.5t-26 -52q-15 -25 -32.5 -47.5t-37 -42.5t-42.5 -37.5t-48 -31.5q-25 -15 -51.5 -26t-54 -18.5t-56 -11t-58.5 -3.5t-58.5 3.5t-56 11t-54 18.5t-51.5 26q-26 14 -48.5 31.5t-42.5 37.5
t-37 42.5t-32 47.5q-15 26 -26 52t-18.5 53.5t-11 56.5t-3.5 59t3.5 58.5t11 56t18.5 54t26 51.5t32 47.5t37 42.5t42.5 37.5t48.5 32.5q25 14 51.5 25.5t54 18.5t56 11t58.5 4t58.5 -4t56 -11t54 -18.5t51.5 -25.5q25 -15 48 -32.5t42.5 -37.5t37 -42.5t32.5 -47.5z
M309 533h-103v-308h103v308zM299 590q4 4 7 8.5t5 9t3 10t1 10.5q0 6 -1 11.5t-3 10t-5 9t-7 7.5q-4 4 -8.5 7t-9.5 5t-11 2.5t-12 0.5q-7 0 -12.5 -0.5t-11 -2.5t-10 -5t-8.5 -7q-4 -3 -7 -7.5t-5 -9t-3 -10t-1 -11.5q0 -5 1 -10.5t3 -10t5 -9t7 -8.5q3 -4 7.5 -6.5
t10 -4.5t11 -3t12.5 -1v0q7 0 13 1t11 3t9.5 4.5t8.5 6.5zM678 402q0 17 -2 31.5t-6 27.5t-10.5 24t-14.5 20t-17 15.5t-20 11t-23 6.5t-25 2h-9.5t-9 -1t-9 -1.5t-8.5 -2.5q-4 -1 -7.5 -2.5l-7 -3t-6.5 -3.5l-6 -4t-5.5 -4t-4.5 -4.5t-4 -4t-3 -3.5q-2 -2 -3.5 -4l-3 -4
l-3 -4t-3.5 -5v44h-102v-15q1 -4 1 -11.5v-19v-27v-34.5v-41.5v-47.5t-0.5 -53t-0.5 -59h102v172q0 4 0.5 7.5t1 6.5l1 6t1.5 5q2 4 4 7.5t4.5 7t5 6.5t6.5 6q3 2 6.5 4t8 3.5t9 2t8.5 0.5q7 0 13 -1t11 -3.5t9 -6t7 -7.5q3 -5 5.5 -10.5t4 -12t2 -13.5t0.5 -15v-165h103
v177zM467 488v0.5v0.5v0v0v-1z" />
    <glyph glyph-name="uniE629" unicode="&#xe629;" 
d="M864 552q3 -12 5 -24.5t3.5 -25.5t2 -26t0.5 -26t-0.5 -26t-2 -25.5t-3.5 -25t-5 -24.5q-4 -16 -8.5 -31t-10.5 -30t-13 -29.5t-15 -28.5q-6 -10 -12 -19.5t-13 -18.5t-14 -17.5t-14 -16.5q-11 -13 -23.5 -25t-26 -23t-28 -21t-29.5 -19q-25 -14 -51.5 -25t-54 -18.5
t-56.5 -11.5t-58 -4q-30 0 -59 4t-56.5 11.5t-54 18.5t-51.5 25q-15 9 -29.5 19t-28 21t-26 23t-23.5 25q-7 8 -14 16.5t-13.5 17.5t-13 18.5t-11.5 19.5q-10 17 -18 34t-14.5 34.5t-11.5 36t-8 36.5q-2 10 -3.5 19.5t-2 19.5l-1 20t-0.5 20t0.5 20l1 20t2 20t3.5 19
q1 9 3 17.5l4 17t5 17t5 16.5q4 -3 7.5 -6t7.5 -6l8 -6l8 -6q43 -29 80 -54t66.5 -46t52.5 -37t39 -28q7 -5 13.5 -9.5t12 -8.5t10 -7.5t9.5 -5.5q4 -3 9 -6t10.5 -6t12 -6t13.5 -5q7 -3 14 -5.5t13.5 -4t13 -2t12.5 -0.5h1q6 0 12.5 0.5t13 2t13 4t14.5 5.5q7 2 13 5l12 6
t11 6t9 6q4 2 9 5.5t10.5 7.5t11.5 8.5t13 9.5q21 15 46 32.5t55 38t64.5 44.5t73.5 50q5 4 9 7t8.5 6.5t8.5 7t8 6.5l4 -12t3.5 -12t3.5 -12t3 -12zM817 671q0 -2 1 -3t1.5 -2.5t1.5 -2.5t1 -3q-4 -5 -9 -9.5l-10 -9t-10 -8.5t-11 -8q-45 -32 -81.5 -57t-64.5 -44.5
t-47.5 -33t-30.5 -21.5q-2 -1 -3.5 -2.5t-4.5 -3t-6 -4t-7 -5.5t-7.5 -5.5t-6.5 -4.5l-6 -4l-6 -4q-2 -2 -5 -3.5t-6 -3.5t-6.5 -4t-7.5 -5q-3 -2 -6.5 -4t-7 -3.5t-7 -2.5t-6.5 -3q-3 -1 -6.5 -1.5t-6.5 -1t-5.5 -1t-5.5 -0.5h-1q-3 0 -6 0.5l-6 1l-6 1t-6 1.5q-3 2 -6.5 3
t-7 2.5t-7 3.5t-7.5 4q-3 3 -6.5 5t-6.5 4t-6 3.5t-6 3.5q-2 2 -5 4t-6.5 4t-7 4.5t-7.5 5.5q-3 3 -6.5 5.5t-6 4t-4.5 3t-3 2.5q-11 8 -24 17t-29 20t-34 23.5t-39 26.5q-20 15 -36.5 26t-28.5 19.5t-20.5 14.5t-12.5 9q-5 3 -9.5 6.5t-9.5 8t-9.5 9l-9.5 9.5q1 1 2 3
t2 3.5l2 3t2 3.5q14 25 31.5 47.5t37.5 42.5t42.5 37.5t47.5 31.5q1 1 1.5 1t1 0.5l1 1t1.5 0.5q25 14 50.5 24.5t52.5 17.5t55 10.5t58 3.5q29 0 57 -3.5t55 -10.5t53 -17.5t50 -24.5q1 0 1.5 -0.5l1 -1t1 -0.5t1.5 -1q25 -14 47.5 -31.5t42.5 -37.5t37.5 -42.5t32.5 -47.5
z" />
    <glyph glyph-name="uniE62A" unicode="&#xe62a;" 
d="M817 671q14 -26 25 -52t18.5 -53.5t11 -56.5t3.5 -59t-3.5 -58.5t-11 -56t-18.5 -54t-25 -51.5q-15 -25 -32.5 -47.5t-37.5 -42.5t-42.5 -37.5t-47.5 -32.5q-25 -14 -51.5 -25.5t-54 -18.5t-56.5 -11t-58 -4q-30 0 -59 4t-56.5 11t-54 18.5t-51.5 25.5q-25 15 -47.5 32.5
t-42.5 37.5t-37.5 42.5t-31.5 47.5q-15 25 -26 51.5t-18.5 54t-11 56t-3.5 58.5t3.5 59t11 56.5t18.5 53.5t26 52q14 25 31.5 47.5t37.5 42.5t42.5 37.5t47.5 31.5q25 15 51.5 26t54 18.5t56.5 11t59 3.5q29 0 58 -3.5t56.5 -11t54 -18.5t51.5 -26q25 -14 47.5 -31.5
t42.5 -37.5t37.5 -42.5t32.5 -47.5zM657 563q9 6 16.5 13t14.5 14.5t13.5 15.5t12.5 16l-16 -6t-16.5 -5t-16.5 -3.5t-16 -2.5q9 5 16.5 12t14 14.5t11.5 16.5t8 19q-9 -5 -17.5 -9t-17.5 -7.5t-18.5 -6t-18.5 -4.5q-9 9 -18.5 15.5t-20 11t-21.5 7t-24 2.5q-11 0 -22 -2
t-21 -6.5t-19.5 -10.5t-17.5 -14q-8 -9 -14.5 -18t-10.5 -19t-6 -21t-2 -23v-6.5t0.5 -6.5t1 -6.5t0.5 -6.5q-17 1 -34 3.5t-33.5 7t-32 10.5t-31.5 14q-15 8 -29 17t-27 19.5t-25 22.5t-22 25q-4 -7 -7 -13.5t-5 -14t-3 -15t-1 -14.5q0 -8 1 -15t2.5 -13.5t4 -13t6.5 -13.5
q3 -6 7 -11.5t9 -10.5t10 -9.5t11 -8.5q-7 0 -13.5 1t-13 3t-13 4.5t-12.5 5.5v-1q0 -10 2 -20t5 -19t8 -17.5t11 -16.5q7 -7 14 -13.5t15.5 -11.5t17.5 -8.5t19 -5.5q-4 -1 -7.5 -1.5t-7.5 -1t-7.5 -1t-7.5 -0.5h-5.5t-5 0.5t-5.5 1t-6 0.5q3 -9 7 -16.5t9 -14.5t11 -13.5
t13 -11.5q8 -6 15.5 -10t16 -7t17 -4.5t18.5 -1.5q-16 -12 -32.5 -21t-34 -15t-36.5 -9.5t-39 -3.5q-3 0 -7 0.5t-7.5 0.5h-6.5t-6 1q20 -13 40.5 -22.5t42.5 -16t45 -9.5t47 -3q15 0 29.5 1t29 3.5t28 6t26.5 8.5q14 5 26 10.5t23.5 12t22 13.5t19.5 15q10 8 18.5 17l17 18
t16 19t13.5 21q7 10 13 20.5t11 21.5t9.5 22.5t7.5 22.5q3 12 6 23t4.5 22.5t2.5 23t1 23.5q0 2 -0.5 4t-0.5 4v3.5v2.5z" />
    <glyph glyph-name="uniE62B" unicode="&#xe62b;" 
d="M387 41q0 -22 -5 -41h-217q-55 0 -98 32q-44 33 -60 85q14 25 40 44q26 18 57 28t61 14t61 4q19 0 28 -1q4 -3 18 -12q14 -10 19 -13q4 -4 17 -14q13 -9 19 -14l15 -15q11 -9 15 -17q5 -7 12 -17q8 -10 10 -20q3 -9 6 -20q2 -11 2 -23zM220 241q-134 -4 -220 -48v247
q59 -67 156 -67q18 0 40 2q-12 -34 -12 -49q0 -38 36 -85zM319 533q0 -57 -25 -92q-25 -34 -80 -34q-29 0 -56 15q-26 15 -44 38q-19 24 -32 54q-14 29 -21 59q-6 30 -6 57q0 55 29 94q30 39 83 39q38 0 68 -23t48 -59t27 -75q9 -38 9 -73zM878 585v-420q0 -68 -49 -117
q-48 -48 -116 -48h-267q22 42 22 90q0 37 -13 70q-12 32 -31 53t-41 40q-22 20 -42 34q-19 15 -31 32q-13 16 -13 34q0 20 13 38q13 19 32 36q19 16 38 36q18 20 31 54q14 33 14 74q0 42 -16 84q-15 41 -43 67q-3 4 -8 7q-4 2 -7 4q-2 1 -6 5q-3 4 -6 10h78l77 37h-250
q-79 0 -140 -22t-104 -77q0 72 46 122q47 50 119 50h548q68 0 116 -49q49 -48 49 -116v-55h-147v147h-73v-147h-146v-73h146v-146h73v146h147z" />
  </font>
</defs>
</svg>
